<svg width="398" height="180" viewBox="0 0 398 180" fill="none" xmlns="http://www.w3.org/2000/svg">
<g clip-path="url(#clip0_1190_10245)">
<path d="M121.104 180C149.604 180 172.708 178.247 172.708 176.085C172.708 173.923 149.604 172.17 121.104 172.17C92.6039 172.17 69.5 173.923 69.5 176.085C69.5 178.247 92.6039 180 121.104 180Z" fill="#E6E6E6"/>
<path d="M108.945 39.9388C117.926 36.1233 129.112 38.5408 140.035 40.2186C140.137 38.1868 141.369 35.7139 140.079 34.2963C138.51 32.5742 138.655 30.7646 139.598 28.9447C142.011 24.2908 138.554 19.3388 135.064 15.2213C134.277 14.2953 133.283 13.5677 132.162 13.0977C131.04 12.6277 129.824 12.4284 128.611 12.5161L122.145 12.9774C120.572 13.0897 119.07 13.6793 117.842 14.6673C116.613 15.6553 115.715 16.9946 115.269 18.5061C113.725 20.6035 112.899 22.6952 113.419 24.776C111.107 26.3547 110.718 28.2602 111.757 30.4085C112.639 31.761 112.629 33.0777 111.717 34.3579C110.52 35.99 109.602 37.8099 109.003 39.7429L108.945 39.9388Z" fill="#2F2E41"/>
<path d="M322.363 155.607H139.326C137.698 155.607 136.137 154.961 134.986 153.812C133.835 152.662 133.188 151.103 133.188 149.477C199.539 141.774 264.643 141.774 328.5 149.477C328.5 151.103 327.853 152.662 326.702 153.812C325.551 154.961 323.99 155.607 322.363 155.607Z" fill="#2F2E41"/>
<path d="M328.5 149.837L133.188 149.477L155.824 111.431L155.933 111.251V27.4035C155.933 26.3857 156.133 25.3779 156.523 24.4377C156.913 23.4974 157.484 22.643 158.205 21.9234C158.925 21.2038 159.781 20.6329 160.722 20.2435C161.663 19.8541 162.672 19.6537 163.691 19.6537H296.914C297.933 19.6537 298.942 19.8541 299.883 20.2435C300.825 20.6329 301.68 21.2038 302.4 21.9234C303.121 22.643 303.692 23.4974 304.082 24.4377C304.472 25.3779 304.673 26.3857 304.673 27.4035V111.828L328.5 149.837Z" fill="#3F3D56"/>
<path d="M163.514 25.063C162.844 25.0638 162.202 25.33 161.728 25.8032C161.255 26.2765 160.988 26.9181 160.987 27.5874V104.039C160.988 104.708 161.255 105.349 161.728 105.823C162.202 106.296 162.844 106.562 163.514 106.563H298.175C298.845 106.562 299.487 106.296 299.961 105.823C300.434 105.349 300.701 104.708 300.702 104.039V27.5874C300.701 26.9181 300.435 26.2765 299.961 25.8032C299.487 25.33 298.845 25.0638 298.175 25.063H163.514Z" fill="white"/>
<path d="M164.078 116.66C163.871 116.661 163.669 116.72 163.494 116.832C163.32 116.943 163.181 117.102 163.095 117.29L156.12 132.436C156.044 132.601 156.011 132.782 156.023 132.963C156.036 133.144 156.094 133.319 156.192 133.472C156.29 133.624 156.424 133.75 156.584 133.837C156.743 133.924 156.922 133.97 157.103 133.97H303.78C303.965 133.97 304.147 133.923 304.308 133.833C304.469 133.743 304.605 133.614 304.702 133.457C304.799 133.3 304.854 133.121 304.862 132.937C304.871 132.752 304.832 132.569 304.749 132.404L297.168 117.258C297.078 117.078 296.94 116.927 296.769 116.821C296.598 116.715 296.4 116.66 296.199 116.66H164.078Z" fill="#2F2E41"/>
<path d="M230.302 23.8009C231.2 23.8009 231.927 23.0743 231.927 22.1781C231.927 21.2818 231.2 20.5553 230.302 20.5553C229.405 20.5553 228.678 21.2818 228.678 22.1781C228.678 23.0743 229.405 23.8009 230.302 23.8009Z" fill="white"/>
<path d="M215.885 136.855C215.647 136.855 215.416 136.934 215.227 137.078C215.038 137.223 214.902 137.426 214.84 137.655L213.09 144.147C213.047 144.307 213.041 144.475 213.073 144.638C213.106 144.801 213.175 144.954 213.276 145.086C213.377 145.218 213.507 145.325 213.656 145.398C213.805 145.472 213.969 145.51 214.136 145.51H247.409C247.581 145.51 247.751 145.469 247.905 145.389C248.058 145.31 248.191 145.196 248.291 145.055C248.391 144.915 248.456 144.752 248.48 144.582C248.505 144.411 248.488 144.237 248.432 144.074L246.182 137.583C246.109 137.37 245.97 137.186 245.787 137.056C245.604 136.925 245.384 136.855 245.159 136.855H215.885Z" fill="#2F2E41"/>
<path d="M304.672 109.989V111.431H155.824L155.936 111.251V109.989H304.672Z" fill="#2F2E41"/>
<path d="M300.521 50.4867C314.478 50.4867 325.793 39.1848 325.793 25.2433C325.793 11.3018 314.478 0 300.521 0C286.564 0 275.25 11.3018 275.25 25.2433C275.25 39.1848 286.564 50.4867 300.521 50.4867Z" fill="#800080"/>
<path d="M310.991 36.2422H290.052C289.669 36.2418 289.302 36.0897 289.031 35.8193C288.76 35.5489 288.608 35.1822 288.607 34.7997V22.1781C288.608 21.7956 288.76 21.429 289.031 21.1585C289.302 20.8881 289.669 20.736 290.052 20.7356H310.991C311.373 20.736 311.741 20.8881 312.011 21.1585C312.282 21.429 312.434 21.7956 312.435 22.1781V34.7997C312.434 35.1822 312.282 35.5489 312.011 35.8193C311.741 36.0897 311.374 36.2418 310.991 36.2422ZM290.052 22.1781V34.7997H310.992L310.991 22.1781L290.052 22.1781Z" fill="white"/>
<path d="M307.019 22.1781H294.022V16.4082C294.022 12.229 296.755 9.19577 300.521 9.19577C304.286 9.19577 307.019 12.229 307.019 16.4082L307.019 22.1781ZM295.467 20.7356H305.575V16.4082C305.575 13.011 303.497 10.6383 300.521 10.6383C297.545 10.6383 295.467 13.011 295.467 16.4082L295.467 20.7356Z" fill="white"/>
<path d="M300.521 29.5708C301.319 29.5708 301.965 28.925 301.965 28.1283C301.965 27.3316 301.319 26.6858 300.521 26.6858C299.724 26.6858 299.077 27.3316 299.077 28.1283C299.077 28.925 299.724 29.5708 300.521 29.5708Z" fill="white"/>
<path d="M282.879 80.6315H178.809C178.298 80.6309 177.808 80.4278 177.447 80.0669C177.086 79.7061 176.882 79.2168 176.882 78.7064V52.9196C176.882 52.4092 177.086 51.9199 177.447 51.559C177.808 51.1981 178.298 50.9951 178.809 50.9945H282.879C283.39 50.9951 283.88 51.1981 284.241 51.559C284.603 51.9199 284.806 52.4092 284.807 52.9196V78.7064C284.806 79.2168 284.603 79.7061 284.241 80.0669C283.88 80.4278 283.39 80.6309 282.879 80.6315ZM178.809 51.7646C178.502 51.7649 178.209 51.8867 177.992 52.1032C177.775 52.3198 177.653 52.6134 177.653 52.9196V78.7064C177.653 79.0126 177.775 79.3062 177.992 79.5228C178.209 79.7393 178.502 79.8611 178.809 79.8614H282.879C283.186 79.8611 283.48 79.7393 283.697 79.5228C283.913 79.3062 284.035 79.0126 284.036 78.7064V52.9196C284.035 52.6134 283.913 52.3198 283.697 52.1032C283.48 51.8867 283.186 51.7649 282.879 51.7645L178.809 51.7646Z" fill="#E6E6E6"/>
<path d="M194.979 72.6653C199.315 72.6653 202.83 69.1544 202.83 64.8235C202.83 60.4926 199.315 56.9818 194.979 56.9818C190.644 56.9818 187.129 60.4926 187.129 64.8235C187.129 69.1544 190.644 72.6653 194.979 72.6653Z" fill="#E6E6E6"/>
<path d="M213.11 59.5957C212.938 59.5954 212.768 59.629 212.609 59.6946C212.45 59.7601 212.305 59.8564 212.184 59.9777C212.062 60.0991 211.965 60.2433 211.9 60.402C211.834 60.5607 211.8 60.7308 211.8 60.9026C211.8 61.0744 211.834 61.2446 211.9 61.4033C211.965 61.562 212.062 61.7061 212.184 61.8275C212.305 61.9489 212.45 62.0451 212.609 62.1107C212.768 62.1763 212.938 62.2099 213.11 62.2096H274.793C275.14 62.2096 275.472 62.0719 275.718 61.8268C275.963 61.5817 276.101 61.2493 276.101 60.9026C276.101 60.556 275.963 60.2236 275.718 59.9785C275.472 59.7334 275.14 59.5957 274.793 59.5957H213.11Z" fill="#E6E6E6"/>
<path d="M213.11 67.4374C212.763 67.4374 212.43 67.5751 212.185 67.8202C211.94 68.0653 211.802 68.3978 211.802 68.7444C211.802 69.091 211.94 69.4235 212.185 69.6686C212.43 69.9137 212.763 70.0514 213.11 70.0514H239.652C239.999 70.0514 240.332 69.9137 240.577 69.6686C240.823 69.4235 240.961 69.091 240.961 68.7444C240.961 68.3978 240.823 68.0653 240.577 67.8202C240.332 67.5751 239.999 67.4374 239.652 67.4374H213.11Z" fill="#E6E6E6"/>
<path d="M155.569 67.9661L136.33 78.1827L136.087 69.6689C142.366 68.6218 148.34 66.7988 153.864 63.8309L155.876 58.8654C156.095 58.3243 156.452 57.8495 156.91 57.4876C157.369 57.1256 157.913 56.889 158.491 56.8008C159.069 56.7127 159.659 56.7762 160.205 56.985C160.751 57.1938 161.233 57.5407 161.604 57.9918C162.146 58.6517 162.418 59.493 162.362 60.3452C162.307 61.1975 161.93 61.9969 161.307 62.5817L155.569 67.9661Z" fill="#FFB8B8"/>
<path d="M108.562 126.953C108.421 126.439 108.392 125.901 108.474 125.374C108.557 124.848 108.75 124.345 109.042 123.898L113.268 117.42C114.267 115.887 115.801 114.781 117.571 114.314C119.342 113.847 121.223 114.054 122.849 114.895C121.073 117.915 121.32 120.564 123.462 122.866C120.137 124.488 117.064 126.58 114.338 129.079C113.84 129.418 113.269 129.634 112.671 129.707C112.073 129.781 111.467 129.711 110.902 129.503C110.336 129.294 109.829 128.955 109.422 128.511C109.015 128.068 108.72 127.533 108.562 126.953Z" fill="#2F2E41"/>
<path d="M156.445 118.482C155.805 119.547 154.902 120.429 153.823 121.045C152.744 121.661 151.524 121.989 150.281 121.999L122.206 122.211L120.988 115.157L133.408 111.508L122.936 103.481L134.382 90.1021L155.171 109.456C156.386 110.588 157.175 112.101 157.407 113.744C157.639 115.387 157.299 117.059 156.445 118.482Z" fill="#2F2E41"/>
<path d="M117.823 166.726H111.247C105.344 126.305 99.3348 85.771 117.092 70.6419L138.035 74.0474L135.356 91.8048L123.667 105.184L117.823 166.726Z" fill="#2F2E41"/>
<path d="M123.602 175.883C123.087 176.023 122.549 176.053 122.021 175.97C121.494 175.888 120.991 175.695 120.544 175.404L113.405 174.445C111.871 173.447 110.762 171.915 110.295 170.146C109.828 168.378 110.035 166.499 110.876 164.875C113.9 166.649 116.552 166.401 118.857 164.262C120.485 167.546 123.168 167.346 125.73 170.113C126.07 170.61 126.285 171.181 126.359 171.778C126.433 172.375 126.362 172.981 126.154 173.546C125.946 174.11 125.606 174.617 125.162 175.023C124.718 175.43 124.183 175.725 123.602 175.883Z" fill="#2F2E41"/>
<path d="M133.408 43.641L121.231 40.722C123.254 36.5872 123.42 31.9864 122.449 27.0999L130.729 26.8567C130.988 32.9331 131.773 38.6101 133.408 43.641Z" fill="#FFB8B8"/>
<path d="M136.755 81.3716C127.891 87.4049 121.628 81.578 116.849 72.5879C117.513 67.0868 116.437 60.5036 114.446 53.3504C113.56 50.1954 113.891 46.8233 115.373 43.8998C116.854 40.9764 119.38 38.7142 122.45 37.5597L132.921 41.9383C141.812 49.1778 143.563 57.0196 140.227 65.2904L136.755 81.3716Z" fill="#800080"/>
<path d="M111.247 49.7223L101.506 54.8306L118.796 65.0471L121.202 70.9749C121.363 71.3705 121.441 71.7947 121.432 72.2215C121.423 72.6483 121.327 73.0689 121.151 73.4575C120.974 73.8461 120.719 74.1947 120.403 74.4819C120.087 74.7692 119.716 74.9891 119.311 75.1283C118.852 75.2865 118.362 75.3363 117.881 75.2739C117.399 75.2115 116.938 75.0385 116.534 74.7685C116.131 74.4985 115.795 74.1388 115.554 73.7176C115.312 73.2964 115.172 72.8251 115.143 72.3407L114.9 68.2094L92.9247 60.9656C92.1843 60.7215 91.5092 60.3123 90.9506 59.7691C90.3919 59.2258 89.9643 58.5626 89.7002 57.8299C89.3153 56.7617 89.2957 55.5963 89.6445 54.5158C89.9934 53.4354 90.6909 52.5009 91.6281 51.8587L109.299 39.749L111.247 49.7223Z" fill="#FFB8B8"/>
<path d="M120.988 50.6953C116.925 48.9169 113.231 50.8488 108.568 52.3981L107.838 39.5057C112.468 37.0407 116.882 36.3761 120.988 38.2895L120.988 50.6953Z" fill="#800080"/>
<path d="M125.848 33.2427C130.142 33.2427 133.622 29.766 133.622 25.4773C133.622 21.1887 130.142 17.712 125.848 17.712C121.555 17.712 118.074 21.1887 118.074 25.4773C118.074 29.766 121.555 33.2427 125.848 33.2427Z" fill="#FFB8B8"/>
<path d="M135.148 24.4975C127.451 25.2506 121.586 23.9931 117.838 20.4129V17.5297H134.495L135.148 24.4975Z" fill="#2F2E41"/>
</g>
<defs>
<clipPath id="clip0_1190_10245">
<rect width="259" height="180" fill="white" transform="translate(69.5)"/>
</clipPath>
</defs>
</svg>
