<svg width="10" height="18" viewBox="0 0 10 18" fill="none" xmlns="http://www.w3.org/2000/svg">
<path d="M9.16421 17.2283L9.72264 16.6714C9.89704 16.4962 9.99312 16.263 9.99312 16.0138C9.99312 15.7647 9.89704 15.5313 9.72264 15.356L3.39615 9.0038L9.72966 2.64423C9.90406 2.46925 10 2.23581 10 1.98675C10 1.73769 9.90406 1.50411 9.72966 1.329L9.17467 0.772002C8.81376 0.409333 8.22588 0.409333 7.86497 0.772002L0.297042 8.34384C0.122782 8.51881 0 8.75198 0 9.00325V9.00615C0 9.25535 0.122919 9.48851 0.297042 9.66349L7.84446 17.2283C8.01872 17.4035 8.25795 17.4997 8.50599 17.5C8.75416 17.5 8.99009 17.4035 9.16421 17.2283Z" fill="#333333"/>
</svg>
