<svg width="32" height="32" viewBox="0 0 32 32" fill="none" xmlns="http://www.w3.org/2000/svg">
<path d="M0 16C0 7.16344 7.16344 0 16 0C24.8366 0 32 7.16344 32 16C32 24.8366 24.8366 32 16 32C7.16344 32 0 24.8366 0 16Z" fill="#800080" fill-opacity="0.5"/>
<g clip-path="url(#clip0_1547_3324)">
<path d="M10.7442 21.4997C10.614 21.3692 10.5399 21.1929 10.5377 21.0085C10.5356 20.8241 10.6055 20.6461 10.7327 20.5125L20.2428 10.5123C20.3054 10.4396 20.382 10.3805 20.4681 10.3384C20.5542 10.2963 20.648 10.2722 20.7437 10.2675C20.8394 10.2627 20.9351 10.2775 21.025 10.3109C21.1148 10.3442 21.1969 10.3955 21.2664 10.4616C21.3358 10.5277 21.391 10.6072 21.4288 10.6953C21.4665 10.7834 21.486 10.8782 21.486 10.9741C21.486 11.0699 21.4665 11.1647 21.4287 11.2528C21.3909 11.3409 21.3356 11.4203 21.2661 11.4864L11.7537 21.4874C11.6246 21.6223 11.4474 21.7007 11.2607 21.7054C11.074 21.7102 10.8931 21.6409 10.7573 21.5128L10.7442 21.4997Z" fill="white"/>
<path d="M20.255 21.4997L20.242 21.4867L10.7334 11.4864C10.6639 11.4203 10.6086 11.3409 10.5709 11.2528C10.5331 11.1647 10.5136 11.0699 10.5135 10.9741C10.5135 10.8782 10.533 10.7834 10.5707 10.6953C10.6085 10.6072 10.6637 10.5277 10.7332 10.4616C10.8026 10.3955 10.8847 10.3442 10.9745 10.3109C11.0644 10.2775 11.1601 10.2627 11.2558 10.2675C11.3515 10.2722 11.4453 10.2963 11.5314 10.3384C11.6175 10.3805 11.6941 10.4396 11.7567 10.5123L21.2691 20.5133C21.3883 20.6495 21.4508 20.8261 21.4437 21.007C21.4366 21.1878 21.3604 21.359 21.2309 21.4854C21.1013 21.6118 20.9283 21.6837 20.7473 21.6864C20.5664 21.689 20.3913 21.6222 20.2581 21.4997L20.255 21.4997Z" fill="white"/>
</g>
<defs>
<clipPath id="clip0_1547_3324">
<rect width="12" height="12" fill="white" transform="translate(10 10)"/>
</clipPath>
</defs>
</svg>
