<svg width="24" height="25" viewBox="0 0 24 25" fill="none" xmlns="http://www.w3.org/2000/svg">
<g clip-path="url(#clip0_1154_1615)">
<path d="M21.2926 5.57578C21.2926 5.57288 21.2904 5.57045 21.2875 5.57016C20.0888 5.45136 18.89 5.35414 17.6873 5.27457C16.8945 5.22213 16.2374 4.63586 16.1055 3.85239C15.9518 2.91144 15.7263 1.5 13.3275 1.5H10.6417C8.25316 1.5 8.02764 2.85007 7.86362 3.84217C7.73759 4.60857 7.09927 5.18437 6.32455 5.23958C5.81245 5.27607 5.30036 5.31666 4.78827 5.36611L2.69704 5.57066C2.49201 5.59112 2.30749 5.68317 2.17423 5.84682C2.04096 6.00023 1.97946 6.20479 1.99996 6.40934C2.02046 6.6139 2.11272 6.798 2.27674 6.93096C2.43051 7.06392 2.63553 7.12529 2.84055 7.10483L4.93179 6.90028C10.3341 6.44003 15.7673 6.51162 21.1491 7.11506H21.2311C21.4259 7.11506 21.6104 7.04347 21.7539 6.91051C21.8974 6.77754 21.9897 6.60367 22 6.41957C22.0102 6.21502 21.9487 6.01046 21.8154 5.85704C21.6833 5.7049 21.5007 5.60305 21.2977 5.58142C21.2948 5.58111 21.2926 5.57868 21.2926 5.57578Z" fill="#800080" fill-opacity="0.5"/>
<path d="M19.7546 9.5186L19.1191 20.0021C19.0063 21.5669 18.8628 23.5 15.2851 23.5H8.70389C5.12624 23.5 4.98272 21.5567 4.86996 20.0021L4.23439 9.50837C4.22413 9.3345 4.25489 9.16062 4.30614 8.99698C4.36765 8.82311 4.45991 8.67992 4.58293 8.54696C4.70594 8.42422 4.84946 8.32194 5.00322 8.25035C5.16724 8.17875 5.34151 8.14807 5.51578 8.14807H18.4732C18.6475 8.14807 18.8218 8.18898 18.9755 8.25035C19.1396 8.32194 19.2831 8.42422 19.4061 8.54696C19.5291 8.67992 19.6214 8.83333 19.6726 8.99698C19.7341 9.16062 19.7649 9.34472 19.7546 9.5186Z" fill="#800080" fill-opacity="0.5"/>
<path d="M9.36035 13.5177H14.5474" stroke="white" stroke-width="1.5" stroke-linecap="round" stroke-linejoin="round"/>
<path d="M10.2217 17.6088H13.7583" stroke="white" stroke-width="1.5" stroke-linecap="round" stroke-linejoin="round"/>
</g>
<defs>
<clipPath id="clip0_1154_1615">
<rect width="20" height="22" fill="white" transform="translate(2 1.5)"/>
</clipPath>
</defs>
</svg>
