<svg width="10" height="18" viewBox="0 0 10 18" fill="none" xmlns="http://www.w3.org/2000/svg">
<path d="M0.835788 0.771727L0.277357 1.32858C0.10296 1.50384 0.00688247 1.737 0.00688247 1.9862C0.00688247 2.23526 0.10296 2.4687 0.277357 2.64395L6.60385 8.9962L0.270337 15.3558C0.0959395 15.5307 0 15.7642 0 16.0132C0 16.2623 0.0959395 16.4959 0.270337 16.671L0.825327 17.228C1.18624 17.5907 1.77412 17.5907 2.13503 17.228L9.70296 9.65616C9.87722 9.48119 10 9.24802 10 8.99675V8.99385C10 8.74465 9.87708 8.51149 9.70296 8.33651L2.15554 0.771727C1.98128 0.596474 1.74205 0.500277 1.49401 0.5C1.24584 0.5 1.00991 0.596474 0.835788 0.771727Z" fill="#333333"/>
</svg>
