<svg width="22" height="23" viewBox="0 0 22 23" fill="none" xmlns="http://www.w3.org/2000/svg">
<g clip-path="url(#clip0_1232_2755)">
<path d="M20.7679 6.42755L20.6966 6.45935C19.0934 7.17306 17.4284 7.69126 15.7204 8.03243C16.2029 10.3218 16.2016 12.6868 15.7178 14.9749C17.4254 15.3143 19.099 15.8287 20.6953 16.5398L20.7653 16.5716C21.5504 15.0522 22.0002 13.3309 22.0002 11.5004C22.0002 9.66997 21.5508 7.94865 20.7683 6.42798L20.7679 6.42755Z" fill="#800080" fill-opacity="0.5"/>
<path d="M10.9984 21.492C12.3898 19.8721 13.3935 18.0394 14.0002 16.1046C12.0078 15.8407 9.98953 15.842 7.99707 16.1046C8.60465 18.039 9.60711 19.8721 10.9989 21.492" fill="#800080" fill-opacity="0.5"/>
<path d="M14.3579 8.24683C13.2523 8.40237 12.136 8.50808 11.0003 8.50808C9.86466 8.50808 8.74661 8.40065 7.64103 8.24683C7.17782 10.3944 7.17782 12.6167 7.6436 14.7643C9.86982 14.455 12.1287 14.455 14.3549 14.7643C14.8211 12.6167 14.8224 10.3944 14.3575 8.24683H14.3579Z" fill="#800080" fill-opacity="0.5"/>
<path d="M10.9989 1.50806C9.60754 3.12798 8.60508 4.9606 7.99707 6.89677C9.98953 7.15931 12.0095 7.15931 14.0002 6.89677C13.3927 4.96231 12.3902 3.12798 10.9984 1.50806H10.9989Z" fill="#800080" fill-opacity="0.5"/>
<path d="M11.9473 0.5C13.5616 2.34809 14.711 4.4557 15.3792 6.68191C16.9823 6.36824 18.5529 5.89129 20.0516 5.23C18.2366 2.59129 15.3079 0.78875 11.9473 0.5Z" fill="#800080" fill-opacity="0.5"/>
<path d="M1.94727 5.23C3.4473 5.89 5.01781 6.36867 6.61969 6.68191C7.28785 4.4557 8.43727 2.34809 10.0516 0.5C6.69102 0.78875 3.76355 2.59129 1.94727 5.23Z" fill="#800080" fill-opacity="0.5"/>
<path d="M6.27945 8.03372C4.57188 7.69126 2.90812 7.17434 1.30625 6.46063L1.23492 6.42883C0.449453 7.94821 0 9.66997 0 11.5C0 13.33 0.449453 15.0518 1.23492 16.5725L1.30625 16.5407C2.90125 15.8282 4.57445 15.3143 6.28246 14.9757C5.79691 12.6877 5.79691 10.3227 6.27988 8.03329L6.27945 8.03372Z" fill="#800080" fill-opacity="0.5"/>
<path d="M10.0516 22.5C8.43727 20.6519 7.28785 18.5443 6.61969 16.3194C5.01652 16.6314 3.44602 17.11 1.94727 17.77C3.76355 20.4087 6.69102 22.2113 10.0516 22.5Z" fill="#800080" fill-opacity="0.5"/>
<path d="M11.9473 22.5C15.3079 22.2113 18.2366 20.4087 20.0516 17.77C18.5529 17.1087 16.9828 16.6314 15.3792 16.3181C14.7123 18.5443 13.5616 20.6519 11.9473 22.5Z" fill="#800080" fill-opacity="0.5"/>
</g>
<defs>
<clipPath id="clip0_1232_2755">
<rect width="22" height="22" fill="white" transform="translate(0 0.5)"/>
</clipPath>
</defs>
</svg>
