<svg width="17" height="17" viewBox="0 0 17 17" fill="none" xmlns="http://www.w3.org/2000/svg">
<g clip-path="url(#clip0_1225_1286)">
<path d="M16.3094 8.6497C16.3094 7.99419 16.2562 7.51584 16.1411 7.01978H8.65576V9.97843H13.0495C12.9609 10.7137 12.4826 11.821 11.4195 12.5651L11.4046 12.6641L13.7714 14.4976L13.9353 14.5139C15.4412 13.1232 16.3094 11.0769 16.3094 8.6497Z" fill="#4285F4"/>
<path d="M8.65571 16.445C10.8083 16.445 12.6153 15.7363 13.9353 14.5139L11.4195 12.565C10.7463 13.0345 9.8427 13.3623 8.65571 13.3623C6.54743 13.3623 4.75806 11.9716 4.1202 10.0493L4.0267 10.0573L1.56575 11.9618L1.53357 12.0513C2.84459 14.6556 5.53754 16.445 8.65571 16.445Z" fill="#34A853"/>
<path d="M4.12023 10.0494C3.95193 9.5533 3.85453 9.02176 3.85453 8.47257C3.85453 7.92332 3.95193 7.39184 4.11138 6.89577L4.10692 6.79013L1.61514 4.85498L1.53361 4.89376C0.993273 5.97449 0.683228 7.18811 0.683228 8.47257C0.683228 9.75703 0.993273 10.9706 1.53361 12.0513L4.12023 10.0494Z" fill="#FBBC05"/>
<path d="M8.65571 3.58269C10.1527 3.58269 11.1626 4.22934 11.7384 4.76974L13.9884 2.57285C12.6065 1.2884 10.8083 0.5 8.65571 0.5C5.53754 0.5 2.84459 2.28937 1.53357 4.89371L4.11134 6.89573C4.75806 4.97347 6.54743 3.58269 8.65571 3.58269Z" fill="#EB4335"/>
</g>
<defs>
<clipPath id="clip0_1225_1286">
<rect width="16" height="16" fill="white" transform="translate(0.5 0.5)"/>
</clipPath>
</defs>
</svg>
