<svg width="32" height="32" viewBox="0 0 32 32" fill="none" xmlns="http://www.w3.org/2000/svg">
<path d="M0 16C0 7.16344 7.16344 0 16 0C24.8366 0 32 7.16344 32 16C32 24.8366 24.8366 32 16 32C7.16344 32 0 24.8366 0 16Z" fill="#800080" fill-opacity="0.5"/>
<path d="M23.3846 12.867H8.61538C8.27897 12.867 8 12.588 8 12.2516C8 11.9152 8.27897 11.6362 8.61538 11.6362H23.3846C23.721 11.6362 24 11.9152 24 12.2516C24 12.588 23.721 12.867 23.3846 12.867Z" fill="white"/>
<path d="M23.3846 16.9695H8.61538C8.27897 16.9695 8 16.6906 8 16.3542C8 16.0177 8.27897 15.7388 8.61538 15.7388H23.3846C23.721 15.7388 24 16.0177 24 16.3542C24 16.6906 23.721 16.9695 23.3846 16.9695Z" fill="white"/>
<path d="M23.3846 21.0721H8.61538C8.27897 21.0721 8 20.7931 8 20.4567C8 20.1203 8.27897 19.8413 8.61538 19.8413H23.3846C23.721 19.8413 24 20.1203 24 20.4567C24 20.7931 23.721 21.0721 23.3846 21.0721Z" fill="white"/>
</svg>
