<svg width="184" height="40" viewBox="0 0 184 40" fill="none" xmlns="http://www.w3.org/2000/svg">
<g clip-path="url(#clip0_1043_192)">
<path d="M19.7043 0C8.82101 0 0 8.95337 0 20C0 31.0466 8.82101 40 19.7043 40C30.5877 40 39.4087 31.0466 39.4087 20C39.4087 8.95337 30.5926 0 19.7043 0ZM22.8174 30.4564L20.8283 27.8224C20.2908 27.1131 19.8998 26.2699 19.6945 25.3869L19.6457 25.1736H14.9347C14.0306 25.1736 13.234 25.7887 12.9994 26.6716L11.9976 30.4564L8.42516 25.7291L9.35368 22.2123C9.61758 21.1706 10.5461 20.4464 11.6066 20.4464H20.2126L21.1411 16.9196C21.3415 16.1557 21.0336 15.5953 20.8283 15.3224C20.623 15.0546 20.1685 14.6031 19.3916 14.6031H10.8687L7.25717 9.87599H19.3867C21.4147 9.87599 23.2865 10.8085 24.5181 12.4454C25.7544 14.0774 26.16 16.1558 25.6371 18.1399L24.2346 23.4574C24.0977 23.9682 24.2101 24.5189 24.5229 24.9405L28.6915 30.4514H22.8223L22.8174 30.4564ZM30.1869 15.2084C28.5791 15.2084 27.2694 13.879 27.2694 12.247C27.2694 10.6151 28.5791 9.28571 30.1869 9.28571C31.7947 9.28571 33.1045 10.6151 33.1045 12.247C33.1045 13.879 31.7947 15.2084 30.1869 15.2084ZM66.6194 20.62C66.0818 21.4683 64.9872 22.3561 63.4721 22.5199L69.185 29.3304H65.4612L60.0855 22.9216H51.2645V29.3304H48.039V13.5466H61.0189C63.7067 13.5466 65.4807 14.2757 66.3946 15.3472C66.9517 16.0367 67.2498 16.8651 67.2498 18.0159C67.2498 19.0476 67.0495 19.9554 66.6145 20.625L66.6194 20.62ZM63.7312 17.2669C63.2522 16.7014 62.5143 16.4186 60.9456 16.4186H51.2694V20.0744H61.3464C62.7586 20.0744 63.4379 19.8314 63.7752 19.3055C64.0146 18.9435 64.0928 18.5963 64.0928 18.2738C64.0928 17.8919 63.9951 17.5446 63.7361 17.2619L63.7312 17.2669ZM72.7526 29.3304V13.5466H90.9712V16.4781H75.9585V19.9554H90.634V22.8026H75.9585V26.379H91.1521V29.3304H72.7575H72.7526ZM95.5943 29.3304V13.5466H98.8393V26.379H111.941V29.3304H95.5943ZM115.567 29.3304V13.5466H133.786V16.4781H118.773V19.9554H133.449V22.8026H118.773V26.379H133.967V29.3304H115.572H115.567ZM149.737 29.3304H145.734L135.638 13.5466H139.284L147.787 26.7609L156.569 13.5466H159.815L149.742 29.3304H149.737ZM180.96 15.9921C182.651 17.4901 183.272 19.1865 183.272 21.369C183.272 23.5516 182.494 25.4117 181.023 26.746C179.055 28.6855 175.79 29.5734 171.665 29.5734C167.765 29.5734 164.755 28.5814 162.687 26.8651C161.036 25.5307 160.078 23.7104 160.078 21.3492C160.078 19.3105 160.733 17.5695 162.346 16.1161C164.614 13.9733 167.54 13.1845 171.685 13.1845C175.829 13.1845 178.834 14.0724 180.965 15.9921H180.96ZM178.57 24.623C179.568 23.7351 179.963 22.6041 179.963 21.3889C179.963 20.1736 179.587 18.9236 178.511 18.0754C176.997 16.8006 174.969 16.1161 171.661 16.1161C168.351 16.1161 166.103 16.8651 164.814 18.0953C163.816 18.9831 163.382 20.1141 163.382 21.3889C163.382 22.8621 163.919 23.9733 165.176 24.9058C166.788 26.1409 168.802 26.7064 171.685 26.7064C174.851 26.7064 177.022 26.1013 178.575 24.623H178.57Z" fill="#800080"/>
</g>
<defs>
<clipPath id="clip0_1043_192">
<rect width="184" height="40" fill="white"/>
</clipPath>
</defs>
</svg>
