<svg width="60" height="61" viewBox="0 0 60 61" fill="none" xmlns="http://www.w3.org/2000/svg">
<path fill-rule="evenodd" clip-rule="evenodd" d="M60 30.5163C60 47.0759 46.5759 60.5 29.9837 60.5C13.3914 60.5 0 47.0759 0 30.5163C0 13.9567 13.4241 0.5 29.9837 0.5C46.5433 0.5 60 13.9241 60 30.5163Z" fill="#800080" fill-opacity="0.5"/>
<path d="M39.8335 20.9756C40.7946 20.1893 42.2143 20.2427 43.1124 21.1383C44.07 22.0937 44.0708 23.6445 43.1156 24.6022L27.9616 39.7913C27.5019 40.252 26.8773 40.5123 26.2265 40.5121C25.7383 40.5119 25.2643 40.365 24.8645 40.0975L24.4913 39.7881L16.9797 32.2446L16.8106 32.0596C16.0276 31.0958 16.0874 29.6757 16.9861 28.7806C17.8846 27.886 19.3046 27.8317 20.265 28.618L20.45 28.787L26.2265 34.5922L39.6485 21.1446L39.8335 20.9756Z" fill="white"/>
</svg>
