<svg width="12" height="7" viewBox="0 0 12 7" fill="none" xmlns="http://www.w3.org/2000/svg">
<path d="M11.8082 0.585052L11.4151 0.19415C11.2914 0.0720717 11.1268 0.00481773 10.9509 0.00481773C10.7751 0.00481773 10.6103 0.0720717 10.4866 0.19415L6.00268 4.6227L1.51357 0.189236C1.39006 0.0671577 1.22528 0 1.04947 0C0.873666 0 0.708786 0.0671577 0.585176 0.189236L0.192002 0.577729C-0.0640005 0.830365 -0.0640005 1.24189 0.192002 1.49452L5.53683 6.79207C5.66034 6.91405 5.82493 7 6.00229 7H6.00434C6.18025 7 6.34483 6.91396 6.46835 6.79207L11.8082 1.50888C11.9319 1.3869 11.9998 1.21944 12 1.04581C12 0.872085 11.9319 0.706937 11.8082 0.585052Z" fill="#919191"/>
</svg>
